<?xml version="1.0" standalone="no"?>
<!DOCTYPE svg PUBLIC "-//W3C//DTD SVG 20010904//EN"
 "http://www.w3.org/TR/2001/REC-SVG-20010904/DTD/svg10.dtd">
<svg version="1.0" xmlns="http://www.w3.org/2000/svg"
 width="115.000000pt" height="120.000000pt" viewBox="0 0 115.000000 120.000000"
 preserveAspectRatio="xMidYMid meet">

<g transform="translate(0.000000,120.000000) scale(0.100000,-0.100000)"
fill="#000000" stroke="none">
<path d="M480 1149 c0 -37 43 -190 51 -182 6 6 6 19 1 34 -5 13 -15 54 -22 92
-7 37 -16 67 -21 67 -5 0 -9 -5 -9 -11z"/>
<path d="M666 1143 c-11 -27 -36 -151 -36 -176 0 -45 18 2 35 91 16 86 17 127
1 85z"/>
<path d="M290 1105 c0 -16 82 -165 90 -165 6 0 10 3 10 6 0 14 -83 164 -91
164 -5 0 -9 -2 -9 -5z"/>
<path d="M837 1068 c-16 -25 -90 -158 -95 -170 -2 -5 0 -8 5 -8 8 0 27 31 98
153 26 46 19 69 -8 25z"/>
<path d="M190 1017 c0 -18 73 -123 77 -111 4 13 -58 124 -69 124 -5 0 -8 -6
-8 -13z"/>
<path d="M928 875 c-31 -24 -62 -55 -69 -67 -13 -24 -2 -16 100 73 60 53 39
49 -31 -6z"/>
<path d="M430 799 c-83 -39 -115 -70 -140 -135 -32 -87 -35 -165 -11 -281 25
-123 25 -127 4 -215 -15 -64 -15 -72 -1 -96 10 -16 36 -34 63 -45 45 -17 49
-17 84 0 38 19 41 24 94 143 38 85 82 141 160 205 94 76 129 207 79 301 -22
44 -108 122 -155 142 -48 21 -107 14 -177 -19z m178 -3 c36 -19 116 -103 136
-143 21 -43 20 -118 -4 -170 -10 -23 -58 -81 -107 -130 -48 -48 -99 -103 -113
-122 -18 -23 -31 -32 -46 -30 l-22 4 18 72 c10 39 28 94 41 122 19 44 25 51
50 51 19 0 34 8 45 25 33 50 -7 86 -51 45 -29 -27 -38 -9 -19 39 18 44 18 80
-2 88 -24 9 -35 -10 -42 -68 -5 -39 -12 -55 -24 -57 -12 -2 -20 8 -28 37 -12
46 -25 58 -45 41 -23 -19 -19 -76 6 -94 19 -13 21 -20 14 -71 -14 -118 -57
-214 -82 -184 -14 19 -43 197 -43 270 0 123 31 191 108 240 67 43 72 35 17
-23 l-50 -52 44 35 c25 20 50 44 55 55 6 10 16 22 21 26 17 13 95 9 123 -6z
m-88 -213 c-11 -17 -11 -17 -6 0 3 10 6 24 7 30 0 9 2 9 5 0 3 -7 0 -20 -6
-30z m-100 -35 c0 -25 -3 -29 -10 -18 -13 20 -13 50 0 50 6 0 10 -15 10 -32z
m170 -40 c0 -22 -17 -41 -30 -33 -8 5 -7 12 6 26 20 22 24 23 24 7z m-80 -27
c0 -11 -9 -41 -21 -68 -11 -26 -29 -81 -39 -121 -10 -41 -21 -76 -23 -78 -3
-3 -16 -2 -31 2 l-25 6 21 41 c11 23 28 79 38 125 14 69 21 87 41 98 33 18 39
17 39 -5z m-46 -301 c31 0 37 -3 28 -12 -6 -6 -34 -12 -62 -12 -53 0 -102 26
-108 57 -3 14 5 13 50 -8 29 -14 71 -25 92 -25z m-22 -47 c45 6 48 -10 5 -31
-44 -21 -137 15 -137 54 0 9 13 7 46 -8 33 -14 59 -19 86 -15z m-23 -63 c34
-1 35 -2 17 -15 -42 -32 -126 -6 -138 43 -5 16 -1 16 40 -5 25 -13 62 -23 81
-23z"/>
<path d="M459 737 c-19 -16 -24 -24 -13 -18 12 5 23 8 26 6 2 -2 16 6 32 18
24 20 25 23 8 23 -11 0 -35 -13 -53 -29z m41 19 c0 -2 -8 -10 -17 -17 -16 -13
-17 -12 -4 4 13 16 21 21 21 13z"/>
<path d="M540 739 l-35 -31 32 22 c29 19 50 40 41 40 -2 0 -19 -14 -38 -31z"/>
<path d="M569 730 c-13 -10 -19 -19 -13 -20 6 0 19 9 29 20 23 26 14 26 -16 0z"/>
<path d="M606 720 c-22 -17 -35 -30 -30 -30 9 1 83 59 74 59 -3 0 -23 -13 -44
-29z"/>
<path d="M630 695 c-14 -8 -20 -14 -14 -15 5 0 19 7 30 15 24 18 16 19 -16 0z"/>
<path d="M667 661 c-41 -26 -46 -36 -10 -17 17 9 35 20 38 26 8 13 6 12 -28
-9z"/>
<path d="M665 620 c-3 -5 -2 -10 4 -10 5 0 13 5 16 10 3 6 2 10 -4 10 -5 0
-13 -4 -16 -10z"/>
<path d="M685 590 c-3 -6 1 -7 9 -4 18 7 21 14 7 14 -6 0 -13 -4 -16 -10z"/>
<path d="M685 540 c-3 -6 1 -7 9 -4 18 7 21 14 7 14 -6 0 -13 -4 -16 -10z"/>
<path d="M75 794 c29 -23 98 -54 107 -48 9 6 -100 64 -117 64 -5 -1 -1 -8 10
-16z"/>
<path d="M982 706 c-69 -37 -95 -56 -88 -63 3 -3 32 12 64 32 33 20 77 43 99
50 31 12 33 14 13 14 -14 0 -53 -15 -88 -33z"/>
<path d="M35 641 c8 -14 111 -44 128 -38 15 6 -46 32 -96 41 -26 5 -37 4 -32
-3z"/>
<path d="M963 532 c-24 -9 -43 -20 -43 -24 0 -5 17 -1 38 8 20 8 63 16 95 16
32 1 60 5 63 10 9 14 -109 7 -153 -10z"/>
<path d="M846 411 c5 -5 43 -10 84 -11 96 -2 111 0 80 10 -36 12 -176 12 -164
1z"/>
</g>
</svg>
